Coordinates
version=1
nRows=54
nColumns=12
inDegrees=yes

Units are S.I. units (second, meters, Newtons, ...)
Angles are in degrees

endheader
time	SC_y	SC_z	SC_x	AC_y	AC_z	AC_x	GH_y	GH_z	GH_yy	EL_x	PS_y
       0.0               -54.8          2.507          17.57          48.62         -13.69         -7.581          8.886          16.02         -76.92          42.54          138.1
    0.0369               -54.8          2.507          17.57          48.62         -13.69         -7.579          8.899          16.02         -76.91          42.54          138.1
   0.07379               -54.8          2.506          17.56          48.62         -13.69         -7.576          8.912          16.03         -76.89          42.54          138.1
    0.1107               -54.8          2.506          17.56          48.62         -13.69         -7.574          8.927          16.03         -76.88          42.54          138.1
    0.1476               -54.8          2.506          17.56          48.62         -13.69         -7.572          8.942          16.04         -76.87          42.54          138.1
    0.1845               -54.8          2.505          17.56          48.62         -13.68         -7.569          8.959          16.04         -76.85          42.54          138.0
    0.2214               -54.8          2.505          17.56          48.62         -13.68         -7.566          8.976          16.05         -76.84          42.54          138.0
    0.2583               -54.8          2.504          17.56          48.62         -13.68         -7.564          8.995          16.06         -76.82          42.54          138.0
    0.2952              -54.79          2.504          17.56          48.62         -13.68          -7.56          9.015          16.06         -76.81          42.54          138.0
    0.3321              -54.79          2.503          17.56          48.61         -13.67         -7.557          9.037          16.07         -76.79          42.54          138.0
     0.369              -54.79          2.503          17.56          48.61         -13.67         -7.553           9.06          16.08         -76.77          42.54          138.0
    0.4058              -54.79          2.502          17.56          48.61         -13.67          -7.55          9.085          16.09         -76.75          42.54          138.0
    0.4427              -54.79          2.501          17.55          48.61         -13.66         -7.545          9.112           16.1         -76.72          42.54          138.0
    0.4796              -54.79          2.501          17.55          48.61         -13.66         -7.541          9.141          16.11          -76.7          42.54          137.9
    0.5165              -54.79            2.5          17.55          48.61         -13.66         -7.536          9.172          16.12         -76.67          42.54          137.9
    0.5534              -54.79          2.499          17.55          48.61         -13.65         -7.531          9.206          16.13         -76.64          42.54          137.9
    0.5903              -54.79          2.498          17.55           48.6         -13.65         -7.525          9.243          16.14         -76.61          42.54          137.9
    0.6272              -54.78          2.497          17.54           48.6         -13.64         -7.519          9.283          16.15         -76.58          42.54          137.8
    0.6641              -54.78          2.496          17.54           48.6         -13.64         -7.512          9.327          16.17         -76.54          42.54          137.8
     0.701              -54.78          2.495          17.54           48.6         -13.63         -7.504          9.376          16.18          -76.5          42.53          137.8
    0.7379              -54.78          2.494          17.54          48.59         -13.63         -7.496          9.428           16.2         -76.45          42.53          137.8
    0.7748              -54.77          2.492          17.53          48.59         -13.62         -7.487          9.487          16.22          -76.4          42.53          137.7
    0.8117              -54.77          2.491          17.53          48.59         -13.61         -7.477          9.551          16.24         -76.35          42.53          137.7
    0.8486              -54.77          2.489          17.53          48.58          -13.6         -7.466          9.622          16.27         -76.29          42.53          137.6
    0.8855              -54.77          2.487          17.52          48.58         -13.59         -7.454          9.702          16.29         -76.22          42.53          137.6
    0.9224              -54.76          2.485          17.52          48.57         -13.58          -7.44           9.79          16.32         -76.14          42.53          137.5
    0.9593              -54.76          2.483          17.51          48.57         -13.57         -7.425          9.889          16.35         -76.06          42.52          137.5
    0.9962              -54.75           2.48          17.51          48.56         -13.56         -7.407           10.0          16.39         -75.96          42.52          137.4
     1.033              -54.75          2.477           17.5          48.56         -13.54         -7.388          10.13          16.43         -75.86          42.52          137.3
      1.07              -54.74          2.474          17.49          48.55         -13.52         -7.365          10.27          16.48         -75.73          42.52          137.3
     1.107              -54.73           2.47          17.48          48.54          -13.5          -7.34          10.43          16.54         -75.59          42.51          137.2
     1.144              -54.73          2.465          17.47          48.53         -13.48         -7.311          10.62           16.6         -75.43          42.51          137.1
     1.181              -54.72           2.46          17.46          48.52         -13.45         -7.277          10.84          16.67         -75.25           42.5          136.9
     1.218              -54.71          2.454          17.45          48.51         -13.42         -7.238          11.09          16.75         -75.03           42.5          136.8
     1.254              -54.69          2.447          17.43          48.49         -13.38         -7.192          11.38          16.85         -74.78          42.49          136.6
     1.291              -54.68          2.438          17.41          48.47         -13.34         -7.139          11.73          16.97         -74.49          42.49          136.4
     1.328              -54.66          2.428          17.39          48.45         -13.29         -7.074          12.14           17.1         -74.13          42.48          136.1
     1.365              -54.64          2.417          17.37          48.42         -13.23         -6.998          12.63          17.27         -73.71          42.47          135.9
     1.402              -54.62          2.402          17.33          48.39         -13.16         -6.905          13.23          17.47          -73.2          42.45          135.5
     1.439              -54.58          2.384           17.3          48.35         -13.07         -6.791          13.96          17.71         -72.58          42.44          135.1
     1.476              -54.55          2.363          17.25          48.31         -12.96         -6.651          14.86          18.01          -71.8          42.42          134.5
     1.513               -54.5          2.336          17.19          48.25         -12.82         -6.477          15.98          18.38         -70.84           42.4          133.9
      1.55              -54.44          2.302          17.11          48.17         -12.64         -6.257           17.4          18.85         -69.63          42.37          133.0
     1.586              -54.36          2.258          17.02          48.08         -12.42         -5.977          19.19          19.45          -68.1          42.33          131.9
     1.623              -54.26          2.203          16.89          47.95         -12.14         -5.619          21.49          20.22         -66.13          42.28          130.6
      1.66              -54.14          2.131          16.74           47.8         -11.77          -5.16          24.45           21.2          -63.6          42.22          128.8
     1.697              -53.98           2.04          16.54           47.6         -11.31         -4.573          28.22          22.46         -60.37          42.14          126.6
     1.734              -53.78          1.926          16.28          47.35         -10.72         -3.835          32.96          24.04         -56.31          42.04          123.7
     1.771              -53.53          1.786          15.97          47.04         -10.01         -2.936          38.74          25.96         -51.37          41.92          120.3
     1.808              -53.24          1.625          15.62          46.69         -9.183         -1.894          45.44          28.19         -45.63          41.78          116.3
     1.845              -52.93           1.45          15.23           46.3         -8.288        -0.7659          52.69          30.61         -39.42          41.63          112.0
     1.882              -52.63          1.275          14.84          45.92         -7.393         0.3625          59.95          33.03         -33.22          41.48          107.7
     1.919              -52.34          1.113          14.49          45.56         -6.566          1.405          66.64          35.26         -27.48          41.34          103.7
     1.955              -52.09         0.9736          14.18          45.26         -5.853          2.304          72.42          37.18         -22.54          41.22          100.2
